<?xml version="1.0" encoding="utf-8"?>
<!-- Generator: Adobe Illustrator 27.5.0, SVG Export Plug-In . SVG Version: 6.00 Build 0)  -->
<svg version="1.1" xmlns="http://www.w3.org/2000/svg" xmlns:xlink="http://www.w3.org/1999/xlink" x="0px" y="0px"
	 viewBox="0 0 750 500" style="enable-background:new 0 0 750 500;" xml:space="preserve">
<g id="BACKGROUND">
	<rect style="fill:#FAFAFA;" width="750" height="500"/>
</g>
<g id="OBJECTS">
	<g>
		<g>
			<g>
				<g>
					<g>
						<g>
							<path style="fill:#0DE0AC;" d="M168.135,138.081c-1.95,4.626-7.593,8.457-12.577,8.457h-30.115
								c-5.119,0-10.955-4.051-12.746-8.853l-1.426-3.831l-2.308-6.201l-3.135-8.406c-0.138-0.365,0-0.648,0.096-0.785
								c0.097-0.138,0.31-0.365,0.703-0.365h67.754c0.386,0,0.599,0.227,0.696,0.365c0.096,0.138,0.234,0.42,0.103,0.785l-0.895,2.4
								h6.615l0.088-0.237c0.806-2.163,0.503-4.589-0.82-6.49c-1.316-1.895-3.479-3.025-5.787-3.025h-67.754
								c-2.308,0-4.478,1.13-5.794,3.025c-1.316,1.902-1.626,4.327-0.813,6.49l6.869,18.437
								c2.687,7.227,10.844,12.891,18.554,12.891h30.115c7.717,0,15.867-5.663,18.561-12.891l0.658-1.767H168.135z"/>
						</g>
					</g>
					<g>
						<g>
							<polygon style="fill:#0DE0AC;" points="178.66,127.654 176.352,133.854 107.392,133.854 107.392,127.654 							"/>
						</g>
					</g>
				</g>
				<g>
					<path style="fill:#0DE0AC;" d="M123.26,116.509l11.899-14.131c1.432-1.417,3.328-2.196,5.344-2.196
						c2.016,0,3.912,0.779,5.344,2.196l11.899,14.131h2.702l-13.049-15.497l-0.06-0.065c-1.826-1.826-4.254-2.832-6.836-2.832
						c-2.583,0-5.011,1.006-6.836,2.832l-13.108,15.562H123.26z"/>
				</g>
			</g>
			<path style="fill:#465C66;" d="M140.494,73.809c-28.501,0-51.6,23.117-51.6,51.618c0,28.501,23.099,51.618,51.6,51.618
				c28.519,0,51.618-23.117,51.618-51.618C192.112,96.926,169.012,73.809,140.494,73.809z M140.492,171.789
				c-25.604,0-46.362-20.758-46.362-46.362c0-25.605,20.758-46.362,46.362-46.362c25.626,0,46.383,20.758,46.383,46.362
				C186.876,151.032,166.118,171.789,140.492,171.789z"/>
		</g>
	</g>
	<g>
		<g>
			<path style="fill:#465C66;" d="M400.716,100.345l-0.6-8.45h4.25l0.58,8.15c0.09,1.23-0.88,2.27-2.11,2.27
				C401.716,102.315,400.796,101.455,400.716,100.345z"/>
			<path style="fill:#465C66;" d="M345.056,100.045l0.56-7.89c0.01-0.09,0.01-0.17,0.03-0.26h4.26c-0.03,0.19-0.05,0.38-0.06,0.57
				l-0.57,7.88c-0.07,1.11-1,1.97-2.11,1.97C345.936,102.315,344.966,101.275,345.056,100.045z"/>
			<path style="fill:#465C66;" d="M417.556,177.045h-85.12c-5.01,0-8.88-5.29-8.24-11.26l6.91-65.15c0.53-5,4.06-8.74,8.25-8.74
				h4.28c0,0.04-0.01,0.08-0.01,0.12l-0.57,7.89c-0.08,1.13,0.32,2.26,1.1,3.1c0.77,0.83,1.87,1.31,3.01,1.31
				c2.15,0,3.96-1.68,4.11-3.82l0.57-7.89c0.02-0.24,0.04-0.47,0.07-0.71h46.18c0.01,0.02,0.01,0.05,0.01,0.07l0.62,8.53
				c0.15,2.14,1.96,3.82,4.11,3.82c1.14,0,2.23-0.48,3.01-1.31c0.78-0.84,1.18-1.97,1.09-3.1l-0.57-8.01h4.28
				c4.19,0,7.72,3.74,8.25,8.74l6.91,65.15C426.447,171.755,422.566,177.045,417.556,177.045z"/>
			<g>
				<path style="fill:#465C66;" d="M404.947,100.045c0.09,1.23-0.88,2.27-2.11,2.27c-1.12,0-2.04-0.86-2.12-1.97l-0.6-8.45
					l-0.01-0.07c-0.91-12.71-11.31-22.75-23.92-23.34c-0.39-0.02-0.78-0.03-1.17-0.03c-13.05,0-23.89,10.36-25.11,23.44
					c-0.03,0.19-0.05,0.38-0.06,0.57l-0.57,7.88c-0.07,1.11-1,1.97-2.11,1.97c-1.23,0-2.2-1.04-2.11-2.27l0.56-7.89
					c0.01-0.09,0.01-0.17,0.03-0.26c1.14-14.33,12.24-26.21,26.58-27.55c0.93-0.09,1.86-0.13,2.77-0.13c15.35,0,28.24,12,29.34,27.3
					l0.03,0.38L404.947,100.045z"/>
			</g>
		</g>
		<g>
			<g>
				<g>
					<g>
						<g>
							<path style="fill:#0DE0AC;" d="M375.002,165.244c-8.299,0-16.283-3.502-21.908-9.609c-5.072-5.505-7.866-12.666-7.866-20.165
								c0-7.492,2.794-14.649,7.866-20.154c5.625-6.106,13.609-9.609,21.908-9.609c8.298,0,16.284,3.502,21.907,9.609
								c5.073,5.505,7.867,12.663,7.867,20.153c0,7.498-2.794,14.66-7.867,20.165C391.286,161.742,383.301,165.244,375.002,165.244z
								 M375.002,109.269c-7.306,0-14.336,3.084-19.288,8.46c-4.466,4.846-6.925,11.146-6.925,17.741
								c0,6.602,2.459,12.906,6.925,17.752c4.952,5.377,11.982,8.461,19.288,8.461s14.336-3.084,19.287-8.46
								c4.467-4.847,6.926-11.151,6.926-17.752c0-6.594-2.459-12.894-6.926-17.74C389.338,112.353,382.308,109.269,375.002,109.269z
								"/>
						</g>
					</g>
				</g>
				<g>
					<g>
						<rect x="373.221" y="107.488" style="fill:#0DE0AC;" width="3.561" height="55.975"/>
					</g>
					<g>
						<g>
							<g>
								<path style="fill:#0DE0AC;" d="M375.002,165.244c-4.924,0-9.568-3.652-12.745-10.021c-2.701-5.417-4.19-12.433-4.19-19.753
									c0-7.313,1.489-14.324,4.19-19.742c3.176-6.368,7.821-10.021,12.745-10.021c4.924,0,9.568,3.652,12.743,10.021
									c2.701,5.418,4.19,12.429,4.19,19.742c0,7.321-1.489,14.336-4.19,19.753C384.57,161.592,379.926,165.244,375.002,165.244z
									 M375.002,109.269c-3.523,0-7.006,2.934-9.556,8.049c-2.461,4.933-3.816,11.38-3.816,18.152
									c0,6.78,1.355,13.23,3.816,18.164c2.551,5.115,6.033,8.049,9.556,8.049c3.523,0,7.006-2.934,9.555-8.049
									c2.461-4.934,3.817-11.384,3.817-18.164c0-6.772-1.355-13.219-3.817-18.152
									C382.008,112.203,378.525,109.269,375.002,109.269z"/>
							</g>
						</g>
					</g>
				</g>
				<g>
					<g>
						<rect x="347.015" y="133.695" style="fill:#0DE0AC;" width="55.974" height="3.562"/>
					</g>
					<g>
						<g>
							<g>
								<path style="fill:#0DE0AC;" d="M375.008,152.41c-7.321,0-14.338-1.489-19.754-4.191c-6.367-3.174-10.02-7.818-10.02-12.743
									s3.653-9.568,10.021-12.743c5.415-2.702,12.432-4.191,19.753-4.191c7.313,0,14.324,1.489,19.742,4.191
									c6.367,3.174,10.019,7.819,10.019,12.743s-3.652,9.569-10.02,12.743C389.331,150.921,382.321,152.41,375.008,152.41z
									 M375.008,122.104c-6.781,0-13.231,1.355-18.163,3.816c-5.116,2.549-8.049,6.033-8.049,9.556s2.933,7.006,8.048,9.556
									c4.933,2.461,11.383,3.816,18.164,3.816c6.772,0,13.219-1.355,18.152-3.816c5.115-2.55,8.048-6.033,8.048-9.556
									s-2.933-7.006-8.047-9.556C388.227,123.459,381.78,122.104,375.008,122.104z"/>
							</g>
						</g>
					</g>
				</g>
			</g>
		</g>
	</g>
	<g>
		<g>
			<g>
				<path style="fill:#0DE0AC;" d="M652.678,110.315h-86.374c-2.908,0-5.406,2.321-6.196,5.587c-0.171,0.707-0.133,1.451,0.068,2.15
					l9.355,32.492c0.519,1.804,0.8,3.661,1.07,5.518c0.336,2.309,1.717,4.387,3.845,5.479c0.016,0.008,0.031,0.015,0.047,0.023
					c1.086,0.566,2.181,0.9,3.43,1.055c0.431,0.057,0.877,0.084,1.334,0.084c0.854,0,1.748-0.093,2.663-0.254
					c2.825-0.528,5.797-1.816,8.654-3.493c2.887-1.676,5.673-3.679,8.367-5.875c4.952-4.02,9.608-8.63,14.373-13.163l-7.777-1.971
					l12.169-5.27l1.42-0.613l6.31-2.732l-2.584,6.349l-0.59,1.444l-5.006,12.294l-2.15-7.761
					c-3.966,5.161-7.846,10.447-12.34,15.445c-2.453,2.724-5.107,5.363-8.064,7.761c-1.18,0.962-2.422,1.894-3.749,2.763h51.565
					c3.336,0,6.026-3.022,6.41-6.806c0.216-2.129,0.555-4.245,1.061-6.324l8.871-36.488c0.165-0.679,0.184-1.391,0.023-2.07
					C658.102,112.652,655.596,110.315,652.678,110.315L652.678,110.315z"/>
			</g>
		</g>
		<g>
			<g>
				<path style="fill:#465C66;" d="M652.678,113.315c0.779,0,1.522,0.39,2.117,1.04c0.964,1.051,1.242,2.564,0.906,3.949
					l-8.974,36.911c-0.35,1.44-0.633,3.834-0.784,5.308c-0.119,1.166-0.563,2.245-1.271,3.034c-0.438,0.487-1.166,1.068-2.152,1.068
					h-42.956c1.798-1.65,3.595-3.476,5.434-5.518c3.177-3.534,6.06-7.215,8.829-10.833l0.508,1.833
					c0.293,1.057,1.094,1.938,2.157,2.213c0.26,0.067,0.516,0.098,0.766,0.098c1.214,0,2.315-0.734,2.778-1.869l5.004-12.29
					l0.591-1.447l2.542-6.245c0.346-0.851,0.357-1.832-0.082-2.64c-0.562-1.036-1.597-1.596-2.655-1.596
					c-0.402,0-0.807,0.081-1.191,0.247l-6.307,2.731l-1.423,0.615l-12.025,5.207c-1.023,0.443-1.813,1.367-1.934,2.475
					c-0.167,1.526,0.815,2.887,2.244,3.249l2.524,0.64c-3.445,3.292-6.765,6.408-10.279,9.262c-2.79,2.275-5.399,4.109-7.989,5.613
					c-2.811,1.65-5.397,2.703-7.657,3.126c-0.782,0.138-1.502,0.209-2.14,0.209c-0.335,0-0.652-0.02-0.965-0.061
					c-0.905-0.112-1.649-0.34-2.413-0.739c-0.006-0.003-0.059-0.029-0.065-0.033c-1.274-0.653-2.115-1.962-2.268-3.427
					c-0.28-2.674-1.004-5.283-1.748-7.867l-8.429-29.277c-0.397-1.378-0.14-2.912,0.835-3.963c0.592-0.639,1.328-1.022,2.1-1.022
					H652.678 M652.678,110.315h-86.374c-2.908,0-5.406,2.321-6.196,5.587c-0.171,0.707-0.133,1.451,0.068,2.15l9.355,32.492
					c0.519,1.804,0.8,3.661,1.07,5.518c0.336,2.309,1.717,4.387,3.845,5.479c0.016,0.008,0.031,0.015,0.047,0.023
					c1.086,0.566,2.181,0.9,3.43,1.055c0.431,0.057,0.877,0.084,1.334,0.084c0.854,0,1.748-0.093,2.663-0.254
					c2.825-0.528,5.797-1.816,8.654-3.493c2.887-1.676,5.673-3.679,8.367-5.875c4.952-4.02,9.608-8.63,14.373-13.163l-7.777-1.971
					l12.169-5.27l1.42-0.613l6.31-2.732l-2.584,6.349l-0.59,1.444l-5.006,12.294l-2.15-7.761
					c-3.966,5.161-7.846,10.447-12.34,15.445c-2.453,2.724-5.107,5.363-8.064,7.761c-1.18,0.962-2.422,1.894-3.749,2.763h51.565
					c3.336,0,6.026-3.022,6.41-6.806c0.216-2.129,0.555-4.245,1.061-6.324l8.871-36.488c0.165-0.679,0.184-1.391,0.023-2.07
					C658.102,112.652,655.596,110.315,652.678,110.315L652.678,110.315z"/>
			</g>
			<g>
				<path style="fill:#465C66;" d="M652.678,113.315c0.779,0,1.522,0.39,2.117,1.04c0.964,1.051,1.242,2.564,0.906,3.949
					l-8.974,36.911c-0.35,1.44-0.633,3.834-0.784,5.308c-0.119,1.166-0.563,2.245-1.271,3.034c-0.438,0.487-1.166,1.068-2.152,1.068
					h-42.956c1.798-1.65,3.595-3.476,5.434-5.518c3.177-3.534,6.06-7.215,8.829-10.833l0.508,1.833
					c0.293,1.057,1.094,1.938,2.157,2.213c0.26,0.067,0.516,0.098,0.766,0.098c1.214,0,2.315-0.734,2.778-1.869l5.004-12.29
					l0.591-1.447l2.542-6.245c0.346-0.851,0.357-1.832-0.082-2.64c-0.562-1.036-1.597-1.596-2.655-1.596
					c-0.402,0-0.807,0.081-1.191,0.247l-6.307,2.731l-1.423,0.615l-12.025,5.207c-1.023,0.443-1.813,1.367-1.934,2.475
					c-0.167,1.526,0.815,2.887,2.244,3.249l2.524,0.64c-3.445,3.292-6.765,6.408-10.279,9.262c-2.79,2.275-5.399,4.109-7.989,5.613
					c-2.811,1.65-5.397,2.703-7.657,3.126c-0.782,0.138-1.502,0.209-2.14,0.209c-0.335,0-0.652-0.02-0.965-0.061
					c-0.905-0.112-1.649-0.34-2.413-0.739c-0.006-0.003-0.059-0.029-0.065-0.033c-1.274-0.653-2.115-1.962-2.268-3.427
					c-0.28-2.674-1.004-5.283-1.748-7.867l-8.429-29.277c-0.397-1.378-0.14-2.912,0.835-3.963c0.592-0.639,1.328-1.022,2.1-1.022
					H652.678 M652.678,110.315h-86.374c-2.908,0-5.406,2.321-6.196,5.587c-0.171,0.707-0.133,1.451,0.068,2.15l9.355,32.492
					c0.519,1.804,0.8,3.661,1.07,5.518c0.336,2.309,1.717,4.387,3.845,5.479c0.016,0.008,0.031,0.015,0.047,0.023
					c1.086,0.566,2.181,0.9,3.43,1.055c0.431,0.057,0.877,0.084,1.334,0.084c0.854,0,1.748-0.093,2.663-0.254
					c2.825-0.528,5.797-1.816,8.654-3.493c2.887-1.676,5.673-3.679,8.367-5.875c4.952-4.02,9.608-8.63,14.373-13.163l-7.777-1.971
					l12.169-5.27l1.42-0.613l6.31-2.732l-2.584,6.349l-0.59,1.444l-5.006,12.294l-2.15-7.761
					c-3.966,5.161-7.846,10.447-12.34,15.445c-2.453,2.724-5.107,5.363-8.064,7.761c-1.18,0.962-2.422,1.894-3.749,2.763h51.565
					c3.336,0,6.026-3.022,6.41-6.806c0.216-2.129,0.555-4.245,1.061-6.324l8.871-36.488c0.165-0.679,0.184-1.391,0.023-2.07
					C658.102,112.652,655.596,110.315,652.678,110.315L652.678,110.315z"/>
			</g>
			<g>
				<g>
					<path style="fill:#465C66;" d="M651.198,172.889h-83.403c-0.997,0-1.805-0.671-1.805-1.5s0.809-1.5,1.805-1.5h83.403
						c0.997,0,1.805,0.671,1.805,1.5S652.195,172.889,651.198,172.889z"/>
				</g>
			</g>
			<g>
				<g>
					<path style="fill:#465C66;" d="M566.167,171.515l-20.83-68.217c-0.273-0.959,0.151-1.92,0.948-2.147s1.664,0.367,1.937,1.326
						l20.83,68.217c0.273,0.959-0.152,1.92-0.949,2.147C567.307,173.068,566.44,172.474,566.167,171.515z"/>
				</g>
			</g>
			<g>
				<g>
					<path style="fill:#465C66;" d="M577.537,178.356c1.571,0,2.849,1.278,2.849,2.849c0,1.571-1.278,2.849-2.849,2.849
						c-1.571,0-2.849-1.278-2.849-2.849C574.688,179.634,575.966,178.356,577.537,178.356 M577.537,175.356
						c-3.23,0-5.849,2.619-5.849,5.849c0,3.23,2.619,5.849,5.849,5.849s5.849-2.618,5.849-5.849
						C583.386,177.975,580.767,175.356,577.537,175.356L577.537,175.356z"/>
				</g>
				<g>
					<path style="fill:#465C66;" d="M641.457,178.356c1.571,0,2.849,1.278,2.849,2.849c0,1.571-1.278,2.849-2.849,2.849
						c-1.571,0-2.849-1.278-2.849-2.849C638.608,179.634,639.886,178.356,641.457,178.356 M641.457,175.356
						c-3.23,0-5.849,2.619-5.849,5.849c0,3.23,2.619,5.849,5.849,5.849s5.849-2.618,5.849-5.849
						C647.306,177.975,644.687,175.356,641.457,175.356L641.457,175.356z"/>
				</g>
			</g>
			<g>
				<path style="fill:#465C66;" d="M546.89,103.95c-0.055,0-0.109-0.003-0.165-0.009l-12.318-1.346
					c-0.823-0.09-1.418-0.831-1.328-1.654c0.09-0.824,0.829-1.413,1.654-1.328l12.318,1.346c0.823,0.09,1.418,0.831,1.328,1.654
					C548.295,103.381,547.645,103.95,546.89,103.95z"/>
			</g>
		</g>
	</g>
	<g>
		<text transform="matrix(1 0 0 1 69.283 205.0023)" style="fill:#0DE0AC; font-family:'Montserrat-Bold'; font-size:18.9567px;">E-COMMERCE</text>
		
			<text transform="matrix(1 0 0 1 73.9334 218.8241)" style="fill:#465C66; font-family:'Montserrat-Bold'; font-size:9.8365px; letter-spacing:2;">ONLINE SHOPPING</text>
	</g>
	<g>
		<text transform="matrix(1 0 0 1 303.7809 205.0023)" style="fill:#0DE0AC; font-family:'Montserrat-Bold'; font-size:18.9567px;">E-COMMERCE</text>
		
			<text transform="matrix(1 0 0 1 308.4313 218.8241)" style="fill:#465C66; font-family:'Montserrat-Bold'; font-size:9.8365px; letter-spacing:2;">ONLINE SHOPPING</text>
	</g>
	<g>
		<text transform="matrix(1 0 0 1 538.2778 205.0023)" style="fill:#0DE0AC; font-family:'Montserrat-Bold'; font-size:18.9567px;">E-COMMERCE</text>
		
			<text transform="matrix(1 0 0 1 542.9282 218.8241)" style="fill:#465C66; font-family:'Montserrat-Bold'; font-size:9.8365px; letter-spacing:2;">ONLINE SHOPPING</text>
	</g>
	<g>
		<text transform="matrix(1 0 0 1 69.283 401.2003)" style="fill:#0DE0AC; font-family:'Montserrat-Bold'; font-size:18.9567px;">E-COMMERCE</text>
		
			<text transform="matrix(1 0 0 1 73.9334 415.0221)" style="fill:#465C66; font-family:'Montserrat-Bold'; font-size:9.8365px; letter-spacing:2;">ONLINE SHOPPING</text>
	</g>
	<g>
		<text transform="matrix(1 0 0 1 303.7809 401.2003)" style="fill:#0DE0AC; font-family:'Montserrat-Bold'; font-size:18.9567px;">E-COMMERCE</text>
		
			<text transform="matrix(1 0 0 1 308.4313 415.0221)" style="fill:#465C66; font-family:'Montserrat-Bold'; font-size:9.8365px; letter-spacing:2;">ONLINE SHOPPING</text>
	</g>
	<polygon style="fill:#0DE0AC;" points="167.859,342.293 165.37,351.835 117.72,351.835 113.54,335.845 112.76,332.845 
		111.98,329.845 107.8,313.855 175.28,313.855 173.051,322.401 179.253,322.401 183.05,307.855 100.03,307.855 113.08,357.835 
		170,357.835 174.057,342.293 	"/>
	<g>
		<g>
			<path style="fill:#465C66;" d="M176.585,367.867H104.5c-1.138,0-2.131-0.768-2.419-1.868l-16.984-65.049
				c-0.349-1.336,0.452-2.702,1.788-3.051c1.334-0.35,2.702,0.452,3.05,1.787l16.497,63.181h70.153c1.381,0,2.5,1.119,2.5,2.5
				C179.085,366.748,177.965,367.867,176.585,367.867z"/>
		</g>
	</g>
	<g id="XMLID_1_">
		<polygon style="fill:#0DE0AC;" points="177.31,329.845 176.53,332.845 175.74,335.845 109.72,335.845 109.72,329.845 		"/>
	</g>
	<g>
		<path style="fill:#0DE0AC;" d="M114.487,374.944c0,2.775-2.249,5.024-5.024,5.024c-2.774,0-5.024-2.249-5.024-5.024
			s2.249-5.024,5.024-5.024C112.238,369.92,114.487,372.169,114.487,374.944z"/>
		<path style="fill:#0DE0AC;" d="M176.152,374.944c0,2.775-2.249,5.024-5.024,5.024c-2.774,0-5.024-2.249-5.024-5.024
			s2.249-5.024,5.024-5.024C173.903,369.92,176.152,372.169,176.152,374.944z"/>
	</g>
	<g>
		<g>
			<g>
				<path style="fill:#465C66;" d="M401.95,363.337h-53.428c-7.595,0-14.056-5.177-15.711-12.589l-10.715-47.987l-19.448-8.103
					c-1.529-0.638-2.252-2.393-1.615-3.924c0.637-1.528,2.394-2.253,3.923-1.615l20.883,8.701c0.9,0.375,1.561,1.164,1.774,2.116
					l11.054,49.504c1.039,4.65,5.091,7.896,9.855,7.896h53.428c4.688,0,8.725-3.184,9.819-7.741l11.512-47.966
					c0.387-1.612,2.01-2.604,3.617-2.217c1.611,0.387,2.604,2.006,2.217,3.617l-11.512,47.966
					C415.859,358.263,409.422,363.337,401.95,363.337z"/>
			</g>
			<path style="fill:#465C66;" d="M351.953,371.952c0,2.775-2.249,5.024-5.024,5.024s-5.024-2.249-5.024-5.024
				s2.249-5.024,5.024-5.024S351.953,369.177,351.953,371.952z"/>
			<path style="fill:#465C66;" d="M408.515,371.952c0,2.775-2.249,5.024-5.024,5.024c-2.775,0-5.024-2.249-5.024-5.024
				s2.249-5.024,5.024-5.024C406.266,366.928,408.515,369.177,408.515,371.952z"/>
		</g>
		<g>
			<g>
				<g>
					<g>
						<g>
							<path style="fill:#0DE0AC;" d="M375.315,350.069c-8.298,0-16.283-3.502-21.908-9.609c-5.072-5.504-7.866-12.666-7.866-20.165
								c0-7.492,2.794-14.649,7.866-20.154c5.625-6.106,13.609-9.609,21.908-9.609s16.284,3.502,21.907,9.609
								c5.073,5.505,7.867,12.663,7.867,20.153c0,7.498-2.794,14.66-7.867,20.165C391.599,346.566,383.613,350.069,375.315,350.069z
								 M375.315,294.094c-7.306,0-14.336,3.084-19.288,8.46c-4.466,4.846-6.925,11.146-6.925,17.741
								c0,6.602,2.459,12.906,6.925,17.752c4.952,5.377,11.982,8.461,19.288,8.461s14.336-3.084,19.287-8.46
								c4.467-4.847,6.926-11.151,6.926-17.752c0-6.594-2.459-12.894-6.926-17.74C389.651,297.178,382.621,294.094,375.315,294.094z
								"/>
						</g>
					</g>
				</g>
				<g>
					<g>
						<rect x="373.534" y="292.313" style="fill:#0DE0AC;" width="3.561" height="55.975"/>
					</g>
					<g>
						<g>
							<g>
								<path style="fill:#0DE0AC;" d="M375.315,350.069c-4.924,0-9.568-3.652-12.745-10.021c-2.701-5.418-4.19-12.433-4.19-19.753
									c0-7.313,1.489-14.324,4.19-19.742c3.177-6.368,7.821-10.021,12.745-10.021s9.568,3.653,12.743,10.021
									c2.701,5.418,4.19,12.429,4.19,19.742c0,7.321-1.489,14.336-4.19,19.753C384.883,346.416,380.238,350.069,375.315,350.069z
									 M375.315,294.094c-3.523,0-7.006,2.934-9.556,8.049c-2.461,4.934-3.816,11.38-3.816,18.152
									c0,6.78,1.355,13.23,3.816,18.164c2.551,5.115,6.033,8.049,9.556,8.049s7.006-2.934,9.555-8.049
									c2.461-4.934,3.816-11.384,3.816-18.164c0-6.772-1.355-13.219-3.816-18.152C382.32,297.027,378.838,294.094,375.315,294.094
									z"/>
							</g>
						</g>
					</g>
				</g>
				<g>
					<g>
						<rect x="347.327" y="318.52" style="fill:#0DE0AC;" width="55.974" height="3.561"/>
					</g>
					<g>
						<g>
							<g>
								<path style="fill:#0DE0AC;" d="M375.32,337.234c-7.321,0-14.337-1.489-19.754-4.191c-6.367-3.174-10.02-7.819-10.02-12.743
									c0-4.924,3.653-9.569,10.021-12.743c5.415-2.702,12.432-4.191,19.753-4.191c7.313,0,14.324,1.489,19.742,4.191
									c6.367,3.174,10.019,7.819,10.019,12.743s-3.652,9.569-10.02,12.743C389.644,335.746,382.634,337.234,375.32,337.234z
									 M375.32,306.928c-6.781,0-13.232,1.355-18.163,3.816c-5.116,2.549-8.049,6.033-8.049,9.556s2.933,7.006,8.048,9.556
									c4.933,2.461,11.383,3.816,18.164,3.816c6.772,0,13.219-1.355,18.152-3.816c5.115-2.55,8.048-6.033,8.048-9.556
									s-2.933-7.006-8.047-9.556C388.539,308.283,382.092,306.928,375.32,306.928z"/>
							</g>
						</g>
					</g>
				</g>
			</g>
		</g>
	</g>
	<g>
		<g>
			
				<text transform="matrix(1 0 0 1 538.2778 401.2003)" style="fill:#0DE0AC; font-family:'Montserrat-Bold'; font-size:18.9567px;">E-COMMERCE</text>
			
				<text transform="matrix(1 0 0 1 542.9282 415.0221)" style="fill:#465C66; font-family:'Montserrat-Bold'; font-size:9.8365px; letter-spacing:2;">ONLINE SHOPPING</text>
		</g>
		<path style="fill:#465C66;" d="M658.331,319.824l-3.673-26.423l-4.589,6.271c-4.474-5.292-10.268-9.639-16.863-12.452
			c-4.096-1.723-8.467-2.946-12.965-3.458c-4.495-0.525-9.096-0.385-13.596,0.409c-0.563,0.097-1.131,0.177-1.691,0.293
			l-1.666,0.402c-1.114,0.265-2.232,0.527-3.301,0.944l-3.247,1.15c-1.072,0.413-2.094,0.95-3.143,1.428
			c-2.132,0.901-4.045,2.217-6.023,3.418c-0.948,0.66-1.854,1.384-2.78,2.08l-1.379,1.06l-1.28,1.174
			c-0.845,0.792-1.71,1.569-2.531,2.387l-2.282,2.627c-0.789,0.855-1.441,1.815-2.114,2.76c-0.65,0.96-1.391,1.862-1.954,2.878
			l-1.736,3.018c-0.305,0.496-0.536,1.028-0.769,1.56l-0.705,1.592c-1.017,2.091-1.631,4.341-2.377,6.535
			c-2.419,8.944-2.456,18.597,0.313,27.371c1.22,4.43,3.341,8.543,5.71,12.415c1.31,1.869,2.584,3.748,4.139,5.406
			c1.425,1.761,3.124,3.264,4.78,4.777c3.486,2.828,7.173,5.397,11.268,7.103c4.034,1.772,8.26,3.068,12.568,3.545
			c2.126,0.373,4.3,0.34,6.422,0.396c1.066-0.02,2.133-0.138,3.187-0.211l1.577-0.141c0.523-0.071,1.043-0.187,1.562-0.279
			c1.037-0.191,2.064-0.395,3.081-0.606c1.005-0.31,2.003-0.603,2.985-0.933l1.466-0.486l1.418-0.629
			c0.943-0.411,1.868-0.845,2.78-1.279c-1.024,0.094-2.035,0.188-3.029,0.305l-1.486,0.164l-1.502,0.016
			c-0.998-0.001-1.978,0.04-2.954,0.055l-2.927-0.215c-0.483-0.038-0.964-0.052-1.443-0.109l-1.432-0.243
			c-0.949-0.167-1.895-0.27-2.826-0.474c-1.849-0.517-3.693-0.864-5.445-1.573c-7.107-2.398-13.246-6.719-18.032-11.929
			c-1.109-1.396-2.317-2.677-3.25-4.179l-0.748-1.081l-0.372-0.54l-0.314-0.578l-1.267-2.289c-1.542-3.115-2.822-6.361-3.509-9.743
			c-1.625-6.705-1.206-13.68,0.625-20.188c1.033-3.23,2.401-6.342,4.139-9.253c1.813-2.85,3.852-5.593,6.34-7.904l0.896-0.906
			l0.985-0.804c0.661-0.531,1.297-1.099,1.973-1.614l2.119-1.422c0.679-0.524,1.437-0.916,2.188-1.324
			c0.755-0.397,1.48-0.865,2.261-1.22l2.373-1.011c0.781-0.373,1.605-0.626,2.423-0.906l1.229-0.424
			c0.414-0.126,0.836-0.217,1.254-0.329c11.599-3.227,24.869-0.783,35.511,6.736l-7.862,1.072L658.331,319.824z"/>
		<g>
			<path style="fill:#0DE0AC;" d="M643.198,339.391h-41.818c1.539,6.891,7.391,11.102,15.822,11.102
				c5.852,0,10.062-1.743,13.865-5.342l8.533,9.246c-5.138,5.852-12.845,8.94-22.815,8.94c-19.104,0-31.531-12.029-31.531-28.463
				c0-16.546,12.631-28.463,29.482-28.463c16.229,0,28.769,10.898,28.769,28.667C643.504,336.312,643.3,338.055,643.198,339.391z"/>
		</g>
		<g>
			<path style="fill:#FAFAFA;" d="M621.289,331.971h-13.822c-0.719,0-1.362-0.452-1.605-1.129l-3.307-9.217
				c-0.398-1.111,0.425-2.28,1.604-2.28h20.436c1.18,0,2.003,1.17,1.605,2.28l-3.307,9.217
				C622.651,331.519,622.009,331.971,621.289,331.971z"/>
			<g>
				<g>
					<path style="fill:#FAFAFA;" d="M605.944,321.112c-0.155,0-0.311-0.053-0.439-0.161c-0.286-0.243-0.321-0.672-0.078-0.958
						l6.461-7.615c0.242-0.286,0.671-0.322,0.958-0.078c0.286,0.243,0.321,0.672,0.078,0.958l-6.461,7.615
						C606.328,321.031,606.137,321.112,605.944,321.112z"/>
				</g>
				<g>
					<path style="fill:#FAFAFA;" d="M622.814,321.112c-0.193,0-0.384-0.081-0.518-0.24l-6.461-7.615
						c-0.243-0.286-0.208-0.715,0.078-0.958c0.287-0.243,0.715-0.208,0.958,0.078l6.461,7.615c0.243,0.286,0.208,0.715-0.078,0.958
						C623.125,321.059,622.969,321.112,622.814,321.112z"/>
				</g>
			</g>
		</g>
	</g>
</g>
</svg>
