<?xml version="1.0" encoding="utf-8"?>
<!-- Generator: Adobe Illustrator 27.5.0, SVG Export Plug-In . SVG Version: 6.00 Build 0)  -->
<svg version="1.1" xmlns="http://www.w3.org/2000/svg" xmlns:xlink="http://www.w3.org/1999/xlink" x="0px" y="0px"
	 viewBox="0 0 500 500" style="enable-background:new 0 0 500 500;" xml:space="preserve">
<g id="BACKGROUND">
	<rect style="fill:#FFFFFF;" width="500" height="500"/>
</g>
<g id="OBJECTS">
	<g>
		
			<text transform="matrix(1 0 0 1 104.4629 344.0917)" style="fill:#0E395C; font-family:'ConcertOne-Regular'; font-size:47.2782px;">Supermarket</text>
		
			<text transform="matrix(1 0 0 1 149.1333 378.9569)" style="fill:#145182; font-family:'Montserrat-Regular'; font-size:23.1654px;">Your slogan here</text>
	</g>
	<g>
		<path style="fill:#EAEAEA;" d="M297.335,271.861c0,2.973-25.822,5.384-57.675,5.384s-57.675-2.41-57.675-5.384
			c0-2.973,25.822-5.384,57.675-5.384S297.335,268.888,297.335,271.861z"/>
		<g>
			<g>
				<path style="fill:#0E395C;" d="M290.943,212.054h-99.43c-1.892,0-3.62-1.111-4.402-2.825l-28.742-62.598
					c-2.523-5.512-8.077-9.064-14.138-9.064H127.27c-2.797,0-5.06,2.263-5.06,5.046s2.263,5.046,5.06,5.046h16.962
					c2.126,0,4.073,1.248,4.964,3.181l28.728,62.598c2.427,5.293,7.761,8.721,13.589,8.721h99.43c7.309,0,13.26,5.951,13.26,13.26
					c0,2.948-0.96,5.677-2.592,7.885c-2.427,3.264-6.308,5.389-10.668,5.389H184.109c-2.784,0-5.046,2.249-5.046,5.046
					c0,2.784,2.263,5.046,5.046,5.046h18.454c-1.008,1.21-1.638,2.746-1.638,4.444c0,3.855,3.126,6.981,6.981,6.981
					c3.855,0,6.981-3.125,6.981-6.981c0-1.698-0.63-3.234-1.638-4.444h58.032c-0.603,0.74-1.056,1.591-1.33,2.537
					c-0.165,0.603-0.26,1.248-0.26,1.906c0,3.853,3.126,6.98,6.98,6.98c3.058,0,5.65-1.961,6.596-4.69
					c0.247-0.713,0.384-1.481,0.384-2.29c0-1.687-0.603-3.236-1.591-4.443h8.886c9.283,0,17.305-5.43,21.076-13.288
					c1.467-3.044,2.29-6.472,2.29-10.079C314.31,222.53,303.833,212.054,290.943,212.054z"/>
				<g>
					<path style="fill:#0E395C;" d="M292.932,201.193c-0.946,1.344-2.482,2.153-4.141,2.153h-82.824
						c-1.604,0-3.113-0.754-4.059-2.043c-0.96-1.289-1.248-2.948-0.782-4.484l7.953-26.164l12.396-40.795
						c0.658-2.125,2.619-3.579,4.84-3.579h33.815v-5.938c0-0.041,0-0.096,0.014-0.137c0.041-2.633-0.699-10.435-4.772-14.59
						c-1.988-2.029-4.607-3.017-7.994-3.017c-12.67,0-13.699,11.176-13.781,13.411c-0.096,2.77-2.413,4.964-5.183,4.882
						c-2.784-0.069-4.978-2.359-4.909-5.142c0.178-8.036,5.403-23.257,23.874-23.257c6.184,0,11.313,2.057,15.262,6.102
						c7.638,7.843,7.624,20.528,7.597,21.803v10.929c0,2.797-2.263,5.06-5.046,5.06H230.06l-14.001,46.074l-3.277,10.778h68.782
						l-14.645-40.068c-0.96-2.619,0.384-5.512,3.003-6.472c2.619-0.96,5.526,0.384,6.486,3.003l17.127,46.856
						C294.111,198.108,293.878,199.836,292.932,201.193z"/>
				</g>
			</g>
			<g>
				<path style="fill:#145182;" d="M230.06,136.388l-14.001,46.074c-2.523-3.812-4.854-7.747-6.98-11.807l12.396-40.795
					c0.658-2.125,2.619-3.579,4.84-3.579h33.815v-5.938c0-0.041,0-0.096,0.014-0.137c0.041-2.633-0.699-10.435-4.772-14.59
					c-1.988-2.029-4.607-3.017-7.994-3.017c-12.67,0-13.699,11.176-13.781,13.411c-0.096,2.77-2.413,4.964-5.183,4.882
					c-2.784-0.069-4.978-2.359-4.909-5.142c0.178-8.036,5.403-23.257,23.874-23.257c6.184,0,11.313,2.057,15.262,6.102
					c7.638,7.843,7.624,20.528,7.597,21.803v10.929c0,2.797-2.263,5.06-5.046,5.06H230.06z"/>
				<path style="fill:#145182;" d="M288.79,203.346h-56.057c-3.126-3.223-6.075-6.596-8.872-10.106h57.702l-14.645-40.068
					c-0.96-2.619,0.384-5.512,3.003-6.472c2.619-0.96,5.526,0.384,6.486,3.003l17.127,46.856c0.576,1.549,0.343,3.277-0.603,4.635
					C291.986,202.537,290.45,203.346,288.79,203.346z"/>
				<path style="fill:#145182;" d="M314.31,235.42c0,3.606-0.823,7.035-2.29,10.079c-3.51-0.603-6.993-1.33-10.408-2.194
					c1.632-2.208,2.592-4.937,2.592-7.885c0-7.309-5.951-13.26-13.26-13.26h-36.078c-4.525-3.113-8.872-6.486-13-10.106h49.077
					C303.833,212.054,314.31,222.53,314.31,235.42z"/>
			</g>
		</g>
	</g>
</g>
</svg>
